<svg width="130" height="87" viewBox="0 0 130 87" fill="none" xmlns="http://www.w3.org/2000/svg">
<g clip-path="url(#clip0_4458_255427)">
<path d="M125.814 39.5104L130 15.9858L113.892 0H24.7857L9.95308 14.8027L0 70.9592L15.8584 86.9725H105.159L120.047 72.1973L124.511 47.0493H81.7872L80.9277 51.6992H46.189L49.1277 35.0256H83.7833L82.9516 39.4829H125.814V39.5104ZM46.7989 32.3017L42.8897 54.4782H83.2566L84.116 49.8283H121.239L117.496 70.8767L104.022 84.2486H17.0228L2.99424 70.0512L12.5315 16.1233L25.9501 2.75142H112.755L127.033 16.9213L123.512 36.759H86.2785L87.1103 32.3017H46.7989Z" fill="white"/>
<path d="M123.485 36.7591L127.006 16.9213L112.755 2.75146H25.95L12.5314 16.1234L2.99414 70.0513L17.0227 84.2486H104.022L117.496 70.8767L121.239 49.8283H84.0882L83.2287 54.4782H42.8896L46.7988 32.3017H87.1102L86.2784 36.7591H123.485ZM44.9413 29.5503L44.3868 30.1006L39.7013 56.7344L40.2281 57.2296H84.8922L85.7517 56.3767L86.4448 52.5797H117.94L114.918 69.556L102.858 81.4972H18.1871L5.96066 69.1433L15.1097 17.4441L27.0867 5.50289H111.591L124.039 17.8568L121.156 34.0076H89.6331L90.4094 29.798L90.1599 29.5778H44.9413V29.5503Z" fill="#002B5C"/>
<path d="M121.156 34.0077L124.039 17.8568L111.619 5.50293H27.087L15.11 17.4441L5.96094 69.1433L18.1874 81.4972H102.858L114.89 69.5561L117.912 52.5798H86.4173L85.7242 56.3767L84.8648 57.2297H40.2006L39.6739 56.7344L44.3593 30.1007L44.9138 29.5504H90.1601L90.4097 29.7705L89.6334 33.9802H121.156V34.0077ZM43.7771 26.7989L41.7809 28.78L36.6796 57.7249L39.0917 59.9811H86.0015L88.2749 57.7249L88.7185 55.3312H114.585L112.284 68.2079L101.694 78.7183H19.3519L8.95518 68.2079L17.6884 18.7648L28.2514 8.25435H110.454L121.045 18.7648L118.827 31.2287H92.9326L93.3762 28.835L91.2968 26.7714H43.7771V26.7989Z" fill="white"/>
<path d="M118.828 31.256L121.073 18.7646L110.455 8.25415H28.2517L17.6887 18.7646L8.92773 68.2077L19.3521 78.7456H101.722L112.312 68.2077L114.613 55.331H88.7187L88.3029 57.7247L86.0017 59.9809H39.1197L36.6799 57.7247L41.8089 28.7798L43.7774 26.7987H91.2971L93.4042 28.8623L92.9606 31.256H118.828Z" fill="#F26722"/>
</g>
<defs>
<clipPath id="clip0_4458_255427">
<rect width="130" height="87" fill="white"/>
</clipPath>
</defs>
</svg>
